<?xml version="1.0" encoding="UTF-8"?>
<svg xmlns="http://www.w3.org/2000/svg" width="1024" height="1024" viewBox="0 0 1024 1024" role="img" aria-labelledby="title desc"><title id="title">Monarch circular emblem</title><desc id="desc">All-vector emerald and gold medallion, ruby accent; transparent outside the circular emblem.</desc><defs><linearGradient id="emblem-gold" x1="0" y1="0" x2="0.75" y2="1"><stop stop-color="#F1D799"/><stop offset="0.34" stop-color="#D4AF69"/><stop offset="0.66" stop-color="#B78C47"/><stop offset="1" stop-color="#E2C27D"/></linearGradient><radialGradient id="emblem-green" cx="36%" cy="28%" r="85%"><stop stop-color="#185344"/><stop offset="0.52" stop-color="#103E31"/><stop offset="1" stop-color="#08281F"/></radialGradient><radialGradient id="emblem-ruby" cx="34%" cy="25%" r="80%"><stop stop-color="#DA514A"/><stop offset="0.43" stop-color="#A61E22"/><stop offset="1" stop-color="#4B060D"/></radialGradient></defs><g id="round-emblem"><circle cx="512" cy="512" r="468" fill="url(#emblem-gold)"/><circle cx="512" cy="512" r="453" fill="#103D30"/><circle cx="512" cy="512" r="422" fill="none" stroke="url(#emblem-gold)" stroke-width="6.5"/><g transform="translate(-183.824 -72) scale(1.108 1.165)"><g id="crowned-monogram"><path fill="url(#emblem-gold)" d="M374 276 L619 576 L525 702 H486 L568 584 L423 406 V702 H374 Z"/><path fill="url(#emblem-gold)" d="M374 276 L619 576 L525 702 H486 L568 584 L423 406 V702 H374 Z" transform="translate(1256 0) scale(-1 1)"/><path fill="url(#emblem-gold)" d="M628 188 L666 397 L628 434 L590 397 Z M440 295 L628 463 L816 295 L628 539 Z"/><path fill="url(#emblem-gold)" d="M628 605 C634 640.88 637.6 644.56 668 651 C637.6 657.44 634 661.12 628 697 C622 661.12 618.4 657.44 588 651 C618.4 644.56 622 640.88 628 605Z"/></g></g><g transform="translate(512 816)"><circle r="34" fill="url(#emblem-gold)"/><circle r="26.86" fill="url(#emblem-ruby)"/><path d="M0 -23.799999999999997 L15.979999999999999 -11.56 L10.88 -2.72 L0 -11.56 L-13.600000000000001 -7.48Z" fill="#EE8272" opacity=".72"/><path d="M15.979999999999999 -11.56 L23.12 5.44 L7.48 20.74 L10.88 -2.72Z" fill="#790D16"/><path d="M-13.600000000000001 -7.48 L0 -11.56 L10.88 -2.72 L7.48 13.26 L-7.14 13.94 L-14.28 3.06Z" fill="#BA302E"/></g></g></svg>
